<?xml version="1.0" encoding="UTF-8" standalone="no"?>
<svg xmlns="http://www.w3.org/2000/svg" xmlns:xlink="http://www.w3.org/1999/xlink" version="1.1" width="580" height="350" viewBox="0 0 580 350" xml:space="preserve">
<desc>Created with Fabric.js 3.6.6</desc>
<defs>
</defs>
<g transform="matrix(1 0 0 1 291.26 176.35)">
<g style="">
		<g transform="matrix(1.33 0 0 -1.33 -153.97 -0.35)" id="path18" clip-path="url(#CLIPPATH_54)">
<clipPath id="CLIPPATH_54">
	<path transform="matrix(1 0 0 1 115.48 -0.26) translate(-420.94, -297.64)" id="path14" d="M 0 595.276 H 841.89 V 0 H 0 Z" stroke-linecap="round"></path>
</clipPath>
<path style="stroke: none; stroke-width: 1; stroke-dasharray: none; stroke-linecap: butt; stroke-dashoffset: 0; stroke-linejoin: miter; stroke-miterlimit: 4; fill: rgb(29,29,27); fill-rule: nonzero; opacity: 1;" transform=" translate(-305.47, -297.9)" d="m 335.571 283.829 h 7.856 v 29.252 h -7.856 z m -19.012 9.767 l -7.422 19.486 h -8.564 l 11.938 -29.253 h 8.094 l 11.518 29.253 h -8.08 z m 33.182 -51.402 h 7.848 V 353.61 h -7.848 z m 14.438 0 h 7.848 V 353.61 h -7.848 z m -24.742 84.846 c -1.396 0 -2.574 -0.465 -3.49 -1.378 c -0.92 -0.921 -1.382 -2.016 -1.382 -3.257 c 0 -1.243 0.462 -2.337 1.382 -3.255 c 0.916 -0.918 2.094 -1.382 3.49 -1.382 c 1.4 0 2.588 0.444 3.542 1.309 c 0.964 0.883 1.458 2.003 1.458 3.328 c 0 1.325 -0.494 2.457 -1.458 3.325 c -0.958 0.867 -2.142 1.31 -3.542 1.31 m -93.608 -16.963 c -0.842 1.153 -1.958 2.071 -3.314 2.731 c -1.35 0.652 -3.03 0.984 -4.972 0.984 c -2.188 0 -4.104 -0.447 -5.7 -1.325 c -1.42 -0.79 -2.646 -1.979 -3.646 -3.555 c -1.604 3.238 -4.62 4.88 -8.952 4.88 c -2.45 0 -4.43 -0.556 -5.9 -1.648 c -1.088 -0.817 -1.96 -1.728 -2.604 -2.722 v 3.66 h -7.49 v -29.253 h 7.848 v 15.934 c 0 0.913 0.116 1.797 0.338 2.642 c 0.23 0.812 0.596 1.549 1.1 2.181 c 0.496 0.631 1.138 1.138 1.902 1.509 c 0.752 0.372 1.712 0.559 2.838 0.559 c 1.636 0 2.768 -0.466 3.454 -1.426 c 0.706 -0.989 1.062 -2.344 1.062 -4.044 v -17.355 h 7.852 v 15.81 c 0 0.887 0.098 1.759 0.314 2.62 c 0.208 0.849 0.546 1.601 1.012 2.259 c 0.462 0.644 1.066 1.168 1.782 1.554 c 0.72 0.384 1.604 0.582 2.654 0.582 c 1.006 0 1.828 -0.163 2.444 -0.495 c 0.616 -0.327 1.114 -0.772 1.47 -1.332 c 0.376 -0.577 0.634 -1.254 0.784 -2.013 c 0.152 -0.792 0.23 -1.615 0.23 -2.456 v -16.529 h 7.852 v 17.355 c 0 1.721 -0.18 3.364 -0.548 4.874 c -0.362 1.522 -0.98 2.871 -1.81 4.019 m 15.694 -8.411 c 0.308 1.781 1.02 3.228 2.118 4.316 c 1.176 1.152 2.802 1.742 4.84 1.742 c 2.15 0 3.844 -0.58 5.038 -1.715 c 1.116 -1.067 1.734 -2.525 1.838 -4.343 z m 17.888 7.964 c -1.196 1.339 -2.662 2.379 -4.346 3.091 c -1.688 0.71 -3.558 1.071 -5.584 1.071 c -2.168 0 -4.252 -0.368 -6.186 -1.096 c -1.932 -0.727 -3.632 -1.767 -5.052 -3.103 c -1.416 -1.337 -2.548 -2.959 -3.386 -4.841 c -0.822 -1.88 -1.246 -3.998 -1.246 -6.296 c 0 -2.299 0.424 -4.415 1.246 -6.301 c 0.838 -1.872 1.97 -3.501 3.386 -4.837 c 1.42 -1.34 3.12 -2.38 5.052 -3.109 c 1.934 -0.727 4.018 -1.088 6.186 -1.088 c 2.298 0 4.526 0.445 6.624 1.336 c 2.1 0.891 4.03 2.405 5.724 4.5 l 0.23 0.29 l -5.682 4.294 l -0.212 -0.271 c -0.886 -1.069 -1.922 -1.972 -3.09 -2.678 c -1.148 -0.7 -2.594 -1.049 -4.298 -1.049 c -1.928 0 -3.592 0.572 -4.944 1.698 c -1.26 1.042 -2.036 2.51 -2.322 4.355 h 21.708 v 2.326 c 0 2.516 -0.342 4.792 -1.004 6.737 c -0.66 1.965 -1.608 3.631 -2.804 4.971 m 106.584 -7.964 c 0.304 1.781 1.018 3.228 2.122 4.316 c 1.172 1.152 2.8 1.742 4.826 1.742 c 2.152 0 3.854 -0.58 5.048 -1.715 c 1.116 -1.067 1.734 -2.525 1.836 -4.343 z m 21.694 -3.744 c 0 2.516 -0.336 4.788 -1.002 6.737 c -0.67 1.965 -1.606 3.631 -2.8 4.971 c -1.206 1.339 -2.668 2.379 -4.35 3.091 c -1.688 0.71 -3.566 1.071 -5.58 1.071 c -2.168 0 -4.254 -0.368 -6.186 -1.096 c -1.936 -0.727 -3.64 -1.774 -5.06 -3.103 c -1.412 -1.337 -2.546 -2.959 -3.376 -4.841 c -0.826 -1.878 -1.248 -3.998 -1.248 -6.296 c 0 -2.299 0.422 -4.421 1.248 -6.301 c 0.83 -1.875 1.964 -3.501 3.376 -4.837 c 1.42 -1.34 3.124 -2.38 5.06 -3.109 c 1.932 -0.727 4.018 -1.088 6.186 -1.088 c 2.292 0 4.524 0.445 6.62 1.336 c 2.102 0.891 4.028 2.405 5.722 4.5 l 0.242 0.29 l -5.692 4.294 l -0.208 -0.271 c -0.89 -1.069 -1.924 -1.972 -3.092 -2.678 c -1.152 -0.7 -2.596 -1.049 -4.304 -1.049 c -1.926 0 -3.592 0.572 -4.942 1.698 c -1.256 1.042 -2.038 2.51 -2.32 4.355 h 21.706 z M 288.247 242.194 h 7.846 V 353.61 h -7.846 z" stroke-linecap="round"></path>
</g>
		<g transform="matrix(1.33 0 0 -1.33 59.07 -2.04)" id="path22" clip-path="url(#CLIPPATH_55)">
<clipPath id="CLIPPATH_55">
	<path transform="matrix(1 0 0 1 -44.3 -1.53) translate(-420.94, -297.64)" id="path14" d="M 0 595.276 H 841.89 V 0 H 0 Z" stroke-linecap="round"></path>
</clipPath>
<path style="stroke: none; stroke-width: 1; stroke-dasharray: none; stroke-linecap: butt; stroke-dashoffset: 0; stroke-linejoin: miter; stroke-miterlimit: 4; fill: rgb(29,29,27); fill-rule: nonzero; opacity: 1;" transform=" translate(22.71, 25.42)" d="m 0 0 c -6.01 5.638 -14.286 8.872 -22.708 8.872 c -8.424 0 -16.7 -3.234 -22.71 -8.872 c -6.752 -6.334 -10.32 -15.11 -10.32 -25.376 c 0 -16.646 11.576 -34.339 33.03 -34.339 c 21.452 0 33.028 17.693 33.028 34.339 C 10.32 -15.11 6.752 -6.334 0 0 m -5.874 -45.198 c -4.378 -4.322 -10.358 -6.702 -16.834 -6.702 c -11.692 0 -24.278 8.3 -24.278 26.524 c 0 8.16 2.574 14.998 7.442 19.778 c 4.372 4.29 10.35 6.654 16.836 6.654 c 6.484 0 12.462 -2.364 16.834 -6.654 c 4.868 -4.78 7.442 -11.618 7.442 -19.778 c 0 -8.164 -2.574 -15.018 -7.442 -19.822" stroke-linecap="round"></path>
</g>
		<g transform="matrix(1.33 0 0 -1.33 201.67 126.24)" id="path26" clip-path="url(#CLIPPATH_56)">
<clipPath id="CLIPPATH_56">
	<path transform="matrix(1 0 0 1 -151.25 94.68) translate(-420.94, -297.64)" id="path14" d="M 0 595.276 H 841.89 V 0 H 0 Z" stroke-linecap="round"></path>
</clipPath>
<path style="stroke: none; stroke-width: 1; stroke-dasharray: none; stroke-linecap: butt; stroke-dashoffset: 0; stroke-linejoin: miter; stroke-miterlimit: 4; fill: rgb(29,29,27); fill-rule: nonzero; opacity: 1;" transform=" translate(0.92, -34.29)" d="m 0 0 c 12.903 0 22.636 8.322 22.636 19.358 c 0 9.274 -6.193 15.956 -16.99 18.336 l -9.924 2.154 c -5.569 1.206 -8.762 4.83 -8.762 9.942 c 0 6.474 5.645 11.356 13.134 11.356 c 4.206 0 7.814 -1.372 10.433 -3.964 c 1.956 -1.936 3.349 -4.566 3.853 -7.264 l 7.643 2.694 c -0.912 4.082 -5.053 15.974 -22.117 15.974 c -11.71 0 -21.604 -8.906 -21.604 -19.452 c 0 -9.144 5.816 -15.656 15.958 -17.866 l 9.458 -2.06 C 10.082 27.864 13.884 23.9 13.884 18.61 C 13.884 11.996 8.397 7.722 -0.094 7.722 c -10.818 0 -15.454 7.526 -16.184 14.132 l -8.199 -2.616 C -23.22 10.304 -16.088 0 0 0" stroke-linecap="round"></path>
</g>
		<g transform="matrix(1.33 0 0 -1.33 270.62 36.54)" id="path28">
<path style="stroke: none; stroke-width: 1; stroke-dasharray: none; stroke-linecap: butt; stroke-dashoffset: 0; stroke-linejoin: miter; stroke-miterlimit: 4; fill: rgb(29,29,27); fill-rule: nonzero; opacity: 1;" transform=" translate(-623.91, -270.23)" d="m 611.277 266.278 h 25.266 v 7.91 h -25.266 z" stroke-linecap="round"></path>
</g>
		<g transform="matrix(1.33 0 0 -1.33 239.75 -2.03)" id="path30">
<path style="stroke: none; stroke-width: 1; stroke-dasharray: none; stroke-linecap: butt; stroke-dashoffset: 0; stroke-linejoin: miter; stroke-miterlimit: 4; fill: rgb(29,29,27); fill-rule: nonzero; opacity: 1;" transform=" translate(-600.75, -299.16)" d="m 605.015 332.053 h -8.521 v -65.778 h 8.521 z" stroke-linecap="round"></path>
</g>
		<g transform="matrix(1.33 0 0 -1.33 270.62 -1.97)" id="path32">
<path style="stroke: none; stroke-width: 1; stroke-dasharray: none; stroke-linecap: butt; stroke-dashoffset: 0; stroke-linejoin: miter; stroke-miterlimit: 4; fill: rgb(29,29,27); fill-rule: nonzero; opacity: 1;" transform=" translate(-623.91, -299.12)" d="m 611.277 295.115 h 25.266 v 8.004 h -25.266 z" stroke-linecap="round"></path>
</g>
		<g transform="matrix(1.33 0 0 -1.33 270.62 -40.62)" id="path34">
<path style="stroke: none; stroke-width: 1; stroke-dasharray: none; stroke-linecap: butt; stroke-dashoffset: 0; stroke-linejoin: miter; stroke-miterlimit: 4; fill: rgb(29,29,27); fill-rule: nonzero; opacity: 1;" transform=" translate(-623.91, -328.1)" d="m 611.277 324.146 h 25.266 v 7.91 h -25.266 z" stroke-linecap="round"></path>
</g>
		<g transform="matrix(1.33 0 0 -1.33 210.31 -130.31)" id="path46" clip-path="url(#CLIPPATH_57)">
<clipPath id="CLIPPATH_57">
	<path transform="matrix(1 0 0 1 -157.73 -97.73) translate(-420.94, -297.64)" id="path40" d="M 0 595.276 H 841.89 V 0 H 0 Z" stroke-linecap="round"></path>
</clipPath>
<path style="stroke: none; stroke-width: 1; stroke-dasharray: none; stroke-linecap: butt; stroke-dashoffset: 0; stroke-linejoin: miter; stroke-miterlimit: 4; fill: rgb(29,29,27); fill-rule: nonzero; opacity: 1;" transform=" translate(-0.96, -5.08)" d="m 0 0 c 9.78 1.828 15.856 8.924 15.856 18.52 c 0 11.454 -8.23 19.452 -20.014 19.452 h -9.787 v -7.628 h 8.101 C 1.845 30.344 7.01 25.592 7.01 18.52 C 7.01 11.616 1.845 6.978 -5.844 6.978 h -8.101 V -0.65 h 4.161 L 5.387 -27.806 h 9.969 L -0.422 -0.078 Z" stroke-linecap="round"></path>
</g>
		<g transform="matrix(1.33 0 0 -1.33 176.33 -130.31)" id="path48">
<path style="stroke: none; stroke-width: 1; stroke-dasharray: none; stroke-linecap: butt; stroke-dashoffset: 0; stroke-linejoin: miter; stroke-miterlimit: 4; fill: rgb(29,29,27); fill-rule: nonzero; opacity: 1;" transform=" translate(-553.19, -395.37)" d="m 548.867 362.48 h 8.646 v 65.78 h -8.646 z" stroke-linecap="round"></path>
</g>
		<g transform="matrix(1.33 0 0 -1.33 75.97 -130.31)" id="path52">
<path style="stroke: none; stroke-width: 1; stroke-dasharray: none; stroke-linecap: butt; stroke-dashoffset: 0; stroke-linejoin: miter; stroke-miterlimit: 4; fill: rgb(29,29,27); fill-rule: nonzero; opacity: 1;" transform=" translate(-4.29, 32.89)" d="m 0 0 v -65.78 h 8.564 v 27.158 H 8.59 v 7.628 H 8.564 V -7.63 H 8.59 V 0 Z" stroke-linecap="round"></path>
</g>
		<g transform="matrix(1.33 0 0 -1.33 109.51 -148.41)" id="path64" clip-path="url(#CLIPPATH_58)">
<clipPath id="CLIPPATH_58">
	<path transform="matrix(1 0 0 1 -82.13 -111.31) translate(-420.94, -297.64)" id="path58" d="M 0 595.276 H 841.89 V 0 H 0 Z" stroke-linecap="round"></path>
</clipPath>
<path style="stroke: none; stroke-width: 1; stroke-dasharray: none; stroke-linecap: butt; stroke-dashoffset: 0; stroke-linejoin: miter; stroke-miterlimit: 4; fill: rgb(29,29,27); fill-rule: nonzero; opacity: 1;" transform=" translate(-5.6, 19.31)" d="m 0 0 h -9 v -7.628 h 7.314 c 8.102 0 13.134 -4.532 13.134 -11.824 c 0 -7.12 -5.032 -11.542 -13.134 -11.542 H -9 v -7.628 h 9 c 11.895 0 20.2 7.92 20.2 19.264 C 20.2 -8.142 11.706 0 0 0" stroke-linecap="round"></path>
</g>
		<g transform="matrix(1.33 0 0 -1.33 103.14 87.61)" id="path66">
<path style="stroke: none; stroke-width: 1; stroke-dasharray: none; stroke-linecap: butt; stroke-dashoffset: 0; stroke-linejoin: miter; stroke-miterlimit: 4; fill: rgb(29,29,27); fill-rule: nonzero; opacity: 1;" transform=" translate(-498.3, -231.93)" d="m 524.775 235.85 h -52.95 v -7.838 h 52.95 z" stroke-linecap="round"></path>
</g>
		<g transform="matrix(1.33 0 0 -1.33 103.14 135.64)" id="path68">
<path style="stroke: none; stroke-width: 1; stroke-dasharray: none; stroke-linecap: butt; stroke-dashoffset: 0; stroke-linejoin: miter; stroke-miterlimit: 4; fill: rgb(29,29,27); fill-rule: nonzero; opacity: 1;" transform=" translate(-498.3, -195.91)" d="m 494.017 170.073 h 8.566 v 51.676 h -8.566 z" stroke-linecap="round"></path>
</g>
		<g transform="matrix(1.33 0 0 -1.33 160.37 -1.1)" id="path80" clip-path="url(#CLIPPATH_59)">
<clipPath id="CLIPPATH_59">
	<path transform="matrix(1 0 0 1 -120.28 -0.83) translate(-420.94, -297.64)" id="path74" d="M 0 595.276 H 841.89 V 0 H 0 Z" stroke-linecap="round"></path>
</clipPath>
<path style="stroke: none; stroke-width: 1; stroke-dasharray: none; stroke-linecap: butt; stroke-dashoffset: 0; stroke-linejoin: miter; stroke-miterlimit: 4; fill: rgb(29,29,27); fill-rule: nonzero; opacity: 1;" transform=" translate(11.45, 33.59)" d="m 0 0 v -46.888 c 0 -7.754 -4.174 -12.384 -11.168 -12.384 c -7.454 0 -11.729 4.752 -11.729 13.04 v 3.566 h -8.565 v -3.66 c 0 -12.864 7.813 -20.856 20.388 -20.856 c 11.381 0 19.64 8.81 19.64 20.95 L 8.566 0 Z" stroke-linecap="round"></path>
</g>
</g>
</g>
</svg>
